<?xml version="1.0" encoding="UTF-8" standalone="no"?>
<!-- Created with Inkscape (http://www.inkscape.org/) -->

<svg
   xmlns:dc="http://purl.org/dc/elements/1.1/"
   xmlns:cc="http://creativecommons.org/ns#"
   xmlns:rdf="http://www.w3.org/1999/02/22-rdf-syntax-ns#"
   xmlns:svg="http://www.w3.org/2000/svg"
   xmlns="http://www.w3.org/2000/svg"
   xmlns:sodipodi="http://sodipodi.sourceforge.net/DTD/sodipodi-0.dtd"
   xmlns:inkscape="http://www.inkscape.org/namespaces/inkscape"
   width="138.69759mm"
   height="91.106705mm"
   viewBox="0 0 138.69759 91.106705"
   version="1.1"
   id="svg8"
   inkscape:version="0.92.4 (5da689c313, 2019-01-14)"
   sodipodi:docname="SharePool_logo.svg">
  <defs
     id="defs2" />
  <sodipodi:namedview
     id="base"
     pagecolor="#ffffff"
     bordercolor="#666666"
     borderopacity="1.0"
     inkscape:pageopacity="0.0"
     inkscape:pageshadow="2"
     inkscape:zoom="0.9737023"
     inkscape:cx="167.82762"
     inkscape:cy="-213.54329"
     inkscape:document-units="mm"
     inkscape:current-layer="layer1"
     showgrid="false"
     inkscape:window-width="2160"
     inkscape:window-height="1346"
     inkscape:window-x="-11"
     inkscape:window-y="-11"
     inkscape:window-maximized="1"
     fit-margin-top="0"
     fit-margin-left="0"
     fit-margin-right="0"
     fit-margin-bottom="0" />
  <metadata
     id="metadata5">
    <rdf:RDF>
      <cc:Work
         rdf:about="">
        <dc:format>image/svg+xml</dc:format>
        <dc:type
           rdf:resource="http://purl.org/dc/dcmitype/StillImage" />
        <dc:title />
      </cc:Work>
    </rdf:RDF>
  </metadata>
  <g
     inkscape:label="Ebene 1"
     inkscape:groupmode="layer"
     id="layer1"
     transform="translate(1.5052684e-8,-0.89330237)">
    <text
       xml:space="preserve"
       style="font-style:normal;font-weight:normal;font-size:47.23403931px;line-height:1.25;font-family:sans-serif;letter-spacing:0px;word-spacing:0px;fill:#000000;fill-opacity:1;stroke:none;stroke-width:1.18085098"
       x="9.4627352"
       y="65.703796"
       id="text5227"
       transform="scale(0.88241806,1.1332497)"><tspan
         sodipodi:role="line"
         id="tspan5225"
         x="9.4627352"
         y="65.703796"
         style="font-style:normal;font-variant:normal;font-weight:normal;font-stretch:normal;font-family:'Segoe Print';-inkscape-font-specification:'Segoe Print';stroke-width:1.18085098">S</tspan></text>
    <text
       xml:space="preserve"
       style="font-style:normal;font-variant:normal;font-weight:normal;font-stretch:normal;font-size:24.53488731px;line-height:1.25;font-family:'Segoe Print';-inkscape-font-specification:'Segoe Print';letter-spacing:0px;word-spacing:0px;fill:#000000;fill-opacity:1;stroke:none;stroke-width:0.61337215"
       x="31.541607"
       y="76.037865"
       id="text5231"><tspan
         sodipodi:role="line"
         id="tspan5229"
         x="31.541607"
         y="76.037865"
         style="stroke-width:0.61337215">hare</tspan></text>
    <text
       xml:space="preserve"
       style="font-style:normal;font-variant:normal;font-weight:normal;font-stretch:normal;font-size:46.74001694px;line-height:1.25;font-family:'Segoe Print';-inkscape-font-specification:'Segoe Print';letter-spacing:0px;word-spacing:0px;fill:#000000;fill-opacity:1;stroke:none;stroke-width:1.16850042"
       x="99.620094"
       y="64.2145"
       id="text5235"
       transform="scale(0.8555974,1.168774)"><tspan
         sodipodi:role="line"
         id="tspan5233"
         x="99.620094"
         y="64.2145"
         style="stroke-width:1.16850042">P</tspan></text>
    <text
       xml:space="preserve"
       style="font-style:normal;font-variant:normal;font-weight:normal;font-stretch:normal;font-size:27.64249992px;line-height:1.25;font-family:'Segoe Print';-inkscape-font-specification:'Segoe Print';letter-spacing:0px;word-spacing:0px;fill:#000000;fill-opacity:1;stroke:none;stroke-width:0.69106245"
       x="100.89334"
       y="75.008316"
       id="text5239"
       transform="scale(0.99142359,1.0086506)"><tspan
         sodipodi:role="line"
         id="tspan5237"
         x="100.89334"
         y="75.008316"
         style="stroke-width:0.69106245">ool</tspan></text>
    <g
       id="g5259"
       transform="matrix(0.13330795,0,0,0.10109263,-1.2718636,-23.621451)">
      <path
         id="path5257"
         d="m 776.1,575.3 c -355.11386,603.7047 -177.55693,301.85237 0,0 z m -0.1,29.8 c -355.0472,583.8381 -177.5236,291.91903 0,0 z M 182.5,575.3 c 40.61947,603.7047 20.30974,301.85237 0,0 z m 0,29.8 c 40.61947,583.8381 20.30974,291.91903 0,0 z M 11.7,501.4 c -2.5,36.1 -1.6,85.5 -1.4,114.6 3.7,39.2 15.6,50.4 60.4,62.7 6.8,-124.4 110,-137.6 158.2,-116 71.8,32.1 68.9,115.2 68.9,115.2 h 363.1 c 0,0 -5.6,-66.3 51.9,-106.5 56.6,-39.6 173.7,-10.3 170.2,106.5 33.5,14.7 140.4,-2.3 96.7,-165.9 -18.3,-51.6 -53.9,-32.4 -198,-75.3 C 717.1,417.5 704.1,347.5 598.1,262.8 573.4,243.1 524.5,242.6 496.5,242.5 288.8,242 166.7,332.1 84.3,425.4 c -40,18.5 -61.8,45.9 -72.6,76 z m 897.4,54.8 c -3.5,-5.2 -2.7,-13.1 0,-20.8 h 60 c 0,0 10.3,19.3 -0.8,50.3 -13.5,0.5 -34.1,7.4 -59.2,-29.5 z M 437.6,435.9 V 284.1 c 0,0 106.7,-24.5 130.4,-0.8 23.6,23.6 128.4,127 130,130.5 1.6,3.5 7.9,14.7 0,22.1 H 437.6 Z M 177.9,406.4 C 275.5,308.6 373.8,295.1 373.8,295.1 v 132.4 l -5.9,8.4 c 0,0 -167.4,-1.7 -180.7,-1.7 -13.3,0 -16.6,-20.5 -9.3,-27.8 z M 19.2,507.6 h 53.2 c -7.3,38.8 -35.5,46.1 -35.5,46.1 H 19.2 Z"
         inkscape:connector-curvature="0"
         sodipodi:nodetypes="cccccccccccccccccccccccccccccsscccccccscccccc" />
    </g>
    <text
       xml:space="preserve"
       style="font-style:normal;font-variant:normal;font-weight:normal;font-stretch:normal;font-size:5.8735466px;line-height:1.25;font-family:'Segoe Print';-inkscape-font-specification:'Segoe Print';letter-spacing:0px;word-spacing:0px;fill:#000000;fill-opacity:1;stroke:none;stroke-width:0.14683862"
       x="-3.3909433"
       y="65.529381"
       id="text5271"
       transform="scale(0.72810781,1.373423)"><tspan
         sodipodi:role="line"
         id="tspan5269"
         x="-3.3909433"
         y="70.568062"
         style="font-style:normal;font-variant:normal;font-weight:normal;font-stretch:normal;font-family:monospace;-inkscape-font-specification:monospace;letter-spacing:3.47556567px;word-spacing:0px;stroke-width:0.14683862" /></text>
  </g>
</svg>
